<?xml version="1.0" standalone="no"?><!DOCTYPE svg PUBLIC "-//W3C//DTD SVG 1.1//EN" "http://www.w3.org/Graphics/SVG/1.1/DTD/svg11.dtd"><svg t="1501127270282" class="icon" style="" viewBox="0 0 1024 1024" version="1.1" xmlns="http://www.w3.org/2000/svg" p-id="5166" xmlns:xlink="http://www.w3.org/1999/xlink" width="40" height="40"><defs><style type="text/css"></style></defs><path d="M511.415 976.375c-62.887 0-123.91-12.324-181.374-36.629-55.488-23.47-105.314-57.061-148.095-99.842-42.781-42.78-76.372-92.606-99.841-148.094C57.8 634.345 45.476 573.323 45.476 510.435c0-62.887 12.324-123.91 36.629-181.374 23.469-55.488 57.061-105.314 99.841-148.095s92.607-76.372 148.095-99.841c57.464-24.305 118.487-36.629 181.374-36.629s123.91 12.324 181.374 36.629c55.487 23.469 105.313 57.061 148.094 99.841 42.781 42.781 76.372 92.607 99.842 148.095 24.305 57.464 36.629 118.487 36.629 181.374 0 62.888-12.324 123.91-36.629 181.375-23.47 55.487-57.061 105.313-99.842 148.094-42.78 42.781-92.606 76.372-148.094 99.842-57.464 24.305-118.487 36.629-181.374 36.629z m0-867.878c-221.63 0-401.939 180.309-401.939 401.939s180.309 401.939 401.939 401.939c221.629 0 401.939-180.31 401.939-401.939s-180.31-401.939-401.939-401.939z" fill="#666666" p-id="5167"></path><path d="M692.861 647.065c12.641 12.641 12.641 33.137 0 45.779-12.641 12.641-33.137 12.641-45.779 0L330.929 376.69c-12.641-12.641-12.641-33.137 0-45.779 12.641-12.641 33.137-12.641 45.779 0l316.153 316.154z" fill="#666666" p-id="5168"></path><path d="M376.708 692.843c-12.641 12.641-33.137 12.641-45.779 0-12.641-12.641-12.641-33.137 0-45.779L647.083 330.91c12.641-12.641 33.137-12.641 45.779 0 12.641 12.641 12.641 33.137 0 45.779L376.708 692.843z" fill="#666666" p-id="5169"></path></svg>