<?xml version="1.0" standalone="no"?><!DOCTYPE svg PUBLIC "-//W3C//DTD SVG 1.1//EN" "http://www.w3.org/Graphics/SVG/1.1/DTD/svg11.dtd"><svg t="1501224915001" class="icon" style="" viewBox="0 0 1024 1024" version="1.1" xmlns="http://www.w3.org/2000/svg" p-id="10074" xmlns:xlink="http://www.w3.org/1999/xlink" width="28" height="28"><defs><style type="text/css"></style></defs><path d="M810.972 156.808c-14.898-28.148-57.109-23.996-57.109-23.996h-486.054c0 0-42.211-4.151-57.11 23.996-14.898 28.147-116.703 289.681-116.703 289.681v379.070c0 0 14.278 41.591 70.147 41.591s67.662-41.591 67.662-41.591v-58.351h558.062v58.351c0 0 11.795 41.591 67.664 41.591 55.867 0 70.145-41.591 70.145-41.591v-379.070c0.001 0-101.803-261.533-116.703-289.681zM261.911 637.469c-39.254 0-71.078-31.814-71.078-71.077s31.823-71.078 71.078-71.078c39.253 0 71.078 31.814 71.078 71.078 0 39.263-31.824 71.077-71.078 71.077zM759.76 637.469c-39.254 0-71.077-31.814-71.077-71.077s31.823-71.078 71.077-71.078 71.077 31.814 71.077 71.078c0 39.263-31.823 71.077-71.078 71.077zM822.97 400.126c-13.24 0-292.582 0-292.582 0h-39.108c0 0-279.342 0-292.582 0-9.108 0-9.728-10.96-9.728-10.96s57.11-174.434 63.317-187.469c6.207-13.037 22.144-10.96 22.144-10.96h472.806c0 0 15.936-2.076 22.144 10.96 6.207 13.036 63.318 187.469 63.318 187.469s-0.621 10.96-9.728 10.96z" p-id="10075" fill="#06c1ae"></path></svg>