<?xml version="1.0" standalone="no"?><!DOCTYPE svg PUBLIC "-//W3C//DTD SVG 1.1//EN" "http://www.w3.org/Graphics/SVG/1.1/DTD/svg11.dtd"><svg t="1502097811344" class="icon" style="" viewBox="0 0 1024 1024" version="1.1" xmlns="http://www.w3.org/2000/svg" p-id="19819" xmlns:xlink="http://www.w3.org/1999/xlink" width="32" height="32"><defs><style type="text/css"></style></defs><path d="M879.994435 1024H137.728a96.857043 96.857043 0 0 1-92.961391-95.944348V172.076522a86.394435 86.394435 0 0 1 92.961391-83.478261h107.831652V200.347826a44.521739 44.521739 0 0 0 89.043478 0V88.598261h356.173913V200.347826a44.521739 44.521739 0 0 0 89.043479 0V88.598261h106.496a96.857043 96.857043 0 0 1 92.961391 95.944348v743.513043a102.4 102.4 0 0 1-99.283478 95.944348z m-211.478261-467.478261a22.26087 22.26087 0 0 0 0-44.521739h-103.713391l113.352347-113.307826a22.305391 22.305391 0 0 0-31.476869-31.610435l-133.698783 133.787826-133.854608-133.787826a22.26087 22.26087 0 0 0-31.47687 31.387826l113.530435 113.530435h-104.314435a22.26087 22.26087 0 0 0 0 44.521739h133.565217v89.043478h-133.565217a22.26087 22.26087 0 0 0 0 44.52174h133.565217v111.304347a22.26087 22.26087 0 0 0 44.52174 0v-111.304347h133.565217a22.26087 22.26087 0 0 0 0-44.52174h-133.565217v-89.043478h133.565217z m-400.695652-534.260869a22.26087 22.26087 0 0 1 22.260869-22.26087 22.26087 22.26087 0 0 1 22.26087 22.26087v178.086956a22.26087 22.26087 0 0 1-22.26087 22.26087 22.26087 22.26087 0 0 1-22.260869-22.26087V22.26087z m445.217391 0a22.26087 22.26087 0 0 1 22.26087-22.26087 22.26087 22.26087 0 0 1 22.260869 22.26087v178.086956a22.26087 22.26087 0 0 1-22.260869 22.26087 22.26087 22.26087 0 0 1-22.26087-22.26087V22.26087z" p-id="19820" fill="#8a93ff"></path></svg>