<?xml version="1.0" standalone="no"?><!DOCTYPE svg PUBLIC "-//W3C//DTD SVG 1.1//EN" "http://www.w3.org/Graphics/SVG/1.1/DTD/svg11.dtd"><svg t="1502091461681" class="icon" style="" viewBox="0 0 1024 1024" version="1.1" xmlns="http://www.w3.org/2000/svg" p-id="9616" xmlns:xlink="http://www.w3.org/1999/xlink" width="36" height="36"><defs><style type="text/css"></style></defs><path d="M1007.417806 520.307613c-0.148645-4.938323-1.651613-9.794065-4.409806-13.906581l-149.107613-223.744c-4.921806-7.300129-13.212903-11.726452-22.032516-11.726452l-106.908903 0-94.604387 0-0.049548 0c-14.600258 0-26.442323 11.858581-26.442323 26.491871l0 431.384774c0 14.583742 11.842065 26.458839 26.491871 26.458839l54.205935 0 0.016516 0c0 66.873806 54.222452 121.063226 121.079742 121.063226 66.890323 0 121.063226-54.189419 121.096258-121.063226l54.222452 0c14.600258 0 26.491871-11.875097 26.491871-26.491871L1007.467355 521.067355C1007.483871 520.819613 1007.434323 520.555355 1007.417806 520.307613zM724.975484 513.073548 724.975484 351.628387l102.119226 0 107.652129 161.461677L724.975484 513.090065zM805.67329 815.781161c-33.379097 0-60.548129-27.152516-60.548129-60.531613 0-33.379097 27.185548-60.548129 60.548129-60.548129s60.531613 27.185548 60.531613 60.548129C866.204903 788.628645 839.052387 815.781161 805.67329 815.781161zM528.350968 190.199742 73.992258 190.199742c-19.422968 0-35.146323 15.739871-35.146323 35.146323l0 494.740645c0 19.406452 15.723355 35.162839 35.129806 35.162839l85.933419 0c0 66.873806 54.205935 121.063226 121.079742 121.063226s121.079742-54.189419 121.079742-121.063226l126.282323 0c19.422968 0 35.146323-15.756387 35.146323-35.162839L563.49729 225.346065C563.49729 205.939613 547.790452 190.199742 528.350968 190.199742zM280.988903 815.781161c-33.379097 0-60.531613-27.152516-60.531613-60.531613 0-33.379097 27.169032-60.548129 60.531613-60.548129s60.548129 27.185548 60.548129 60.548129C341.537032 788.628645 314.368 815.781161 280.988903 815.781161z" p-id="9617" fill="#66b5ff"></path></svg>