<?xml version="1.0" standalone="no"?><!DOCTYPE svg PUBLIC "-//W3C//DTD SVG 1.1//EN" "http://www.w3.org/Graphics/SVG/1.1/DTD/svg11.dtd"><svg t="1500862392121" class="icon" style="" viewBox="0 0 1024 1024" version="1.1" xmlns="http://www.w3.org/2000/svg" p-id="39280" xmlns:xlink="http://www.w3.org/1999/xlink" width="36" height="36"><defs><style type="text/css"></style></defs><path d="M875.3152 904.192c-180.224 0-720.4864 0-720.4864 0-4.3008 0-11.6736 0.2048-15.5648-1.024-4.096-1.2288-13.1072-4.3008-16.9984-7.3728-4.096-3.2768-9.6256-10.4448-12.6976-16.1792-0.8192-1.6384-2.2528-7.168-2.2528-7.168-1.2288-3.4816-10.8544-34.816-0.8192-67.3792l1.024-3.2768 2.048-2.8672c23.7568-32.5632 82.944-64.9216 145.6128-99.328 57.344-31.5392 144.1792-79.2576 144.7936-104.6528l0-14.5408c0-6.144-2.4576-11.6736-6.5536-16.1792-50.5856-52.224-78.2336-121.6512-78.2336-197.4272 0-122.4704 23.3472-247.6032 196.608-247.6032 173.2608 0 196.608 125.1328 196.608 247.6032 0 75.776-27.648 145.2032-78.2336 197.4272-4.3008 4.3008-6.7584 10.0352-6.7584 16.1792l0 14.9504c0.6144 24.9856 87.2448 72.4992 144.7936 104.2432 62.6688 34.4064 121.856 66.9696 145.6128 99.328l2.048 2.8672 1.024 3.2768c10.0352 32.5632 0.4096 64.1024-0.8192 67.584 0 0-1.4336 5.5296-2.2528 7.168-2.4576 4.7104-9.8304 13.312-13.9264 15.9744-5.3248 3.4816-9.6256 5.5296-15.7696 7.168L875.3152 904.192z" p-id="39281" fill="#4a4a4a" class="selected"></path></svg>