<?xml version="1.0" standalone="no"?><!DOCTYPE svg PUBLIC "-//W3C//DTD SVG 1.1//EN" "http://www.w3.org/Graphics/SVG/1.1/DTD/svg11.dtd"><svg t="1500947350307" class="icon" style="" viewBox="0 0 1024 1024" version="1.1" xmlns="http://www.w3.org/2000/svg" p-id="3487" xmlns:xlink="http://www.w3.org/1999/xlink" width="55" height="55"><defs><style type="text/css"></style></defs><path d="M889.102149 844.125283l-129.990586-129.990586c45.083801-55.048757 72.14411-125.428687 72.14411-202.134697 0-176.320775-142.93541-319.254138-319.255161-319.254138C335.679737 192.744839 192.743304 335.678202 192.743304 511.998977c0 176.321798 142.936433 319.256184 319.255161 319.256184 77.504188 0 148.551314-27.625174 203.849758-73.556273l129.839137 129.839137L889.102149 844.125283zM511.999488 767.43974c-34.512025 0-67.958788-6.745634-99.409081-20.047592-30.410614-12.861936-57.734936-31.289634-81.214696-54.768371-23.479761-23.479761-41.906435-50.804083-54.769394-81.214696-13.302981-31.450293-20.047592-64.897056-20.047592-99.410104 0-34.512025 6.744611-67.958788 20.047592-99.409081 12.861936-30.40959 31.289634-57.733912 54.769394-81.213673 23.479761-23.479761 50.804083-41.906435 81.213673-54.768371 31.450293-13.302981 64.897056-20.047592 99.409081-20.047592 34.513048 0 67.958788 6.744611 99.410104 20.047592 30.410614 12.861936 57.734936 31.28861 81.213673 54.768371 23.479761 23.478737 41.906435 50.80306 54.768371 81.213673 13.301957 31.450293 20.047592 64.897056 20.047592 99.409081 0 34.513048-6.745634 67.958788-20.047592 99.410104-12.861936 30.410614-31.289634 57.734936-54.768371 81.214696-23.479761 23.478737-50.804083 41.906435-81.213673 54.768371C579.958276 760.694105 546.511513 767.43974 511.999488 767.43974z" p-id="3488" fill="#666666"></path></svg>