<?xml version="1.0" standalone="no"?><!DOCTYPE svg PUBLIC "-//W3C//DTD SVG 1.1//EN" "http://www.w3.org/Graphics/SVG/1.1/DTD/svg11.dtd"><svg t="1500693186819" class="icon" style="" viewBox="0 0 1024 1024" version="1.1" xmlns="http://www.w3.org/2000/svg" p-id="14535" xmlns:xlink="http://www.w3.org/1999/xlink" width="50" height="50"><defs><style type="text/css"></style></defs><path d="M935.011246 951.442474H93.090165c-11.30344 0-20.466124-9.162684-20.466124-20.466124V341.42202c0-11.302417 9.162684-20.466124 20.466124-20.466124h841.921081c11.30344 0 20.466124 9.163707 20.466124 20.466124V930.97635c0 11.30344-9.162684 20.466124-20.466124 20.466124z m-821.454957-40.932248h800.988833V361.888144H113.556289V910.510226z" p-id="14536" fill="#7f8389"></path><path d="M514.050706 64.891939L345.692277 233.222739h336.715834L514.050706 64.891939z" p-id="14537" fill="#7f8389"></path><path d="M658.857742 826.830385H369.380792c-9.028631 0-16.392342-7.361665-16.392342-16.392342v-56.949037c0-9.029654 7.362688-16.391319 16.392342-16.391318h289.61612c9.028631 0 16.390295 7.361665 16.390295 16.391318v56.949037c-0.140193 9.029654-7.500834 16.392342-16.529465 16.392342z m0 0M333.960071 526.239306h-56.952106c-9.028631 0-16.390295-7.361665-16.390296-16.390296V452.897927c0-9.028631 7.361665-16.392342 16.390296-16.392342H333.960071c9.028631 0 16.390295 7.362688 16.390295 16.392342v56.951083c0.138146 9.028631-7.361665 16.390295-16.390295 16.390296z m0 0M473.001801 526.239306h-56.949037c-9.029654 0-16.392342-7.361665-16.392342-16.390296V452.897927c0-9.028631 7.361665-16.392342 16.392342-16.392342h56.949037c9.029654 0 16.392342 7.362688 16.392342 16.392342v56.951083c0.138146 9.028631-7.361665 16.390295-16.392342 16.390296z m0 0M612.0466 526.239306h-56.951083c-9.029654 0-16.392342-7.361665-16.392342-16.390296V452.897927c0-9.028631 7.361665-16.392342 16.392342-16.392342h56.951083c9.028631 0 16.390295 7.362688 16.390296 16.392342v56.951083c0.13917 9.028631-7.361665 16.390295-16.390296 16.390296z m0 0M751.090377 526.239306h-56.952107c-9.028631 0-16.390295-7.361665-16.390295-16.390296V452.897927c0-9.028631 7.361665-16.392342 16.390295-16.392342h56.952107c9.028631 0 16.390295 7.362688 16.390295 16.392342v56.951083c0.140193 9.028631-7.360641 16.390295-16.390295 16.390296z m0 0M333.960071 665.837714h-56.952106c-9.028631 0-16.390295-7.361665-16.390296-16.390295v-56.951084c0-9.028631 7.361665-16.390295 16.390296-16.390295H333.960071c9.028631 0 16.390295 7.361665 16.390295 16.390295v56.951084c0.138146 9.029654-7.361665 16.390295-16.390295 16.390295z m0 0M473.001801 665.837714h-56.949037c-9.029654 0-16.392342-7.361665-16.392342-16.390295v-56.951084c0-9.028631 7.361665-16.390295 16.392342-16.390295h56.949037c9.029654 0 16.392342 7.361665 16.392342 16.390295v56.951084c0.138146 9.029654-7.361665 16.390295-16.392342 16.390295z m0 0M612.0466 665.837714h-56.951083c-9.029654 0-16.392342-7.361665-16.392342-16.390295v-56.951084c0-9.028631 7.361665-16.390295 16.392342-16.390295h56.951083c9.028631 0 16.390295 7.361665 16.390296 16.390295v56.951084c0.13917 9.029654-7.361665 16.390295-16.390296 16.390295z m0 0M751.090377 665.837714h-56.952107c-9.028631 0-16.390295-7.361665-16.390295-16.390295v-56.951084c0-9.028631 7.361665-16.390295 16.390295-16.390295h56.952107c9.028631 0 16.390295 7.361665 16.390295 16.390295v56.951084c0.140193 9.029654-7.360641 16.390295-16.390295 16.390295z m0 0" p-id="14538" fill="#7f8389"></path></svg>