<?xml version="1.0" standalone="no"?><!DOCTYPE svg PUBLIC "-//W3C//DTD SVG 1.1//EN" "http://www.w3.org/Graphics/SVG/1.1/DTD/svg11.dtd"><svg t="1500716077032" class="icon" style="" viewBox="0 0 1024 1024" version="1.1" xmlns="http://www.w3.org/2000/svg" p-id="19839" xmlns:xlink="http://www.w3.org/1999/xlink" width="36" height="36"><defs><style type="text/css"></style></defs><path d="M823.371 434.499h-68.717v-159.816c0-133.843-108.783-242.683-242.621-242.683-133.843 0-242.746 108.84-242.746 242.683v159.816h-68.659c-33.106 0-59.937 26.828-59.937 59.937v437.563c0 33.168 26.832 60 59.937 60h622.805c33.111 0 59.88-26.832 59.88-60v-437.563c-0.005-33.111-26.827-59.937-59.943-59.937zM545.691 724.621v95.549c0 4.268-3.532 7.868-7.867 7.868h-51.523c-4.388 0-7.925-3.6-7.925-7.868v-95.549c-24.206-12.379-40.972-37.195-40.972-66.283 0-41.155 33.413-74.631 74.573-74.631 41.217 0 74.635 33.475 74.635 74.631 0.057 29.088-16.709 53.904-40.92 66.283zM661.544 434.499h-299.026v-155.856c0-82.44 67.132-149.573 149.572-149.573s149.453 67.133 149.453 149.573v155.856z" p-id="19840" fill="#4a4a4a"></path></svg>