<?xml version="1.0" standalone="no"?><!DOCTYPE svg PUBLIC "-//W3C//DTD SVG 1.1//EN" "http://www.w3.org/Graphics/SVG/1.1/DTD/svg11.dtd"><svg t="1500971308630" class="icon" style="" viewBox="0 0 1024 1024" version="1.1" xmlns="http://www.w3.org/2000/svg" p-id="6982" xmlns:xlink="http://www.w3.org/1999/xlink" width="36" height="36"><defs><style type="text/css"></style></defs><path d="M934.4 780.8c-17.066667 17.066667-42.666667 17.066667-59.733333 0l-392.533334-392.533333c-17.066667-17.066667-17.066667-42.666667 0-59.733334 17.066667-17.066667 42.666667-17.066667 59.733334 0l392.533333 392.533334c17.066667 17.066667 17.066667 46.933333 0 59.733333z m-844.8 0c-17.066667-17.066667-17.066667-42.666667 0-59.733333l392.533333-392.533334c17.066667-17.066667 42.666667-17.066667 59.733334 0 17.066667 17.066667 17.066667 42.666667 0 59.733334l-392.533334 392.533333c-17.066667 17.066667-42.666667 17.066667-59.733333 0z" p-id="6983" fill="#cccccc"></path></svg>