<?xml version="1.0" standalone="no"?><!DOCTYPE svg PUBLIC "-//W3C//DTD SVG 1.1//EN" "http://www.w3.org/Graphics/SVG/1.1/DTD/svg11.dtd"><svg t="1500868343179" class="icon" style="" viewBox="0 0 1024 1024" version="1.1" xmlns="http://www.w3.org/2000/svg" p-id="41762" xmlns:xlink="http://www.w3.org/1999/xlink" width="36" height="36"><defs><style type="text/css"></style></defs><path d="M338.577 928h0.002a28.609 28.609 0 0 1-19.158-8.324l-41.675-41.675c-4.961-4.963-8.324-12.486-8.324-19.156 0-6.672 3.308-14.142 8.324-19.156l327.688-327.688-327.688-327.69a28.826 28.826 0 0 1-8.324-19.156 27.11 27.11 0 0 1 8.324-19.158l41.675-41.673C324.383 99.361 331.907 96 338.577 96c6.672 0 14.142 3.307 19.156 8.324l388.521 388.519c4.963 4.963 8.324 12.484 8.324 19.156 0 6.67-3.308 14.14-8.324 19.158l-388.52 388.519A28.816 28.816 0 0 1 338.577 928z" fill="#c7c7cc" p-id="41763"></path></svg>