<?xml version="1.0" standalone="no"?><!DOCTYPE svg PUBLIC "-//W3C//DTD SVG 1.1//EN" "http://www.w3.org/Graphics/SVG/1.1/DTD/svg11.dtd"><svg t="1501222812633" class="icon" style="" viewBox="0 0 1024 1024" version="1.1" xmlns="http://www.w3.org/2000/svg" p-id="8479" xmlns:xlink="http://www.w3.org/1999/xlink" width="52" height="52"><defs><style type="text/css"></style></defs><path d="M799.077 222.141H217.313c-10.495 0-19.081 8.585-19.081 19.078v22.01c0 10.492 8.585 19.077 19.081 19.077h581.765c10.488 0 19.073-8.585 19.073-19.077v-22.01c0.001-10.493-8.583-19.078-19.074-19.078z" p-id="8480" fill="#06c1ae"></path><path d="M1022.118 412.071c-0.846-7.202-9.445-26.254-16.68-39.126l-0.271 0.21a24.207 24.207 0 0 0-1.857-4.081L872.84 131.942l-3.581-5.638c-0.746-1-1.432-1.979-2.094-2.923-6.138-8.717-18.911-26.854-47.805-26.854H194.267c-16.483 0-35.217 9.413-47.726 23.981l-2.394 2.786L14.558 356.6c-1.652 3.312-2.828 6.574-3.593 9.706a17.12 17.12 0 0 0-0.61 2.364C-25.341 481.642 36.227 577.814 119.02 617.274a34.153 34.153 0 0 0-0.576 6.21v211.404c0 51.131 41.123 92.583 91.847 92.583h605.588c50.727 0 91.847-41.452 91.847-92.583v-206.86c31.572-10.613 58.429-32.468 78.784-67.391 22.884-39.264 44.053-76.501 35.608-148.566zM815.879 860.002H210.295c-13.759 0-24.914-11.242-24.914-25.113V635.75c2.569 0.229 5.14 0.402 7.71 0.517 70.493 0 132.549-37.088 167.981-92.918 35.556 55.843 96.692 92.771 166.005 92.771 69.926 0 131.521-37.581 166.937-94.245 30.345 52.597 82.977 87.727 146.779 93.124V834.89c0 13.87-11.154 25.112-24.914 25.112z m123.524-333.457c-20.669 30.256-49.021 40.694-79.26 40.694-66.562 0-116.225-45.984-125.854-112.138 0.093-12.42-12.364-24.646-23.839-24.646h-19.816c-0.506 0-1.01 0.029-1.505 0.078h-9.471c-12.11 0.731-20.39 9.729-20.198 24.822 0.883 70.33-63.122 112.729-132.385 112.729-68.202 0-124.571-53.431-132.069-121.969-0.978-8.913-8.383-15.583-17.05-15.583H367.89c-5.525-0.421-11.263 0-16.194 0h-6.251c-10.233 0-19.676 8.374-20.724 18.634-6.852 67.076-63.271 117.247-131.629 117.557-73.882 0.333-147.751-106.912-123.037-173.972 0.006-0.01 0.008-0.019 0.012-0.028 1.76-3.37 3.673-7.435 5.773-12.328l121.351-215.832h617.626c0.411 0.583 0.845 1.192 1.31 1.832l133.032 231.962c5.166 5.688 11.394 24.239 11.962 25.672 0.511 1.289 0.946 2.066 1.353 2.472 8.246 36.684-11.55 83.183-23.071 100.044z" p-id="8481" fill="#06c1ae"></path></svg>