<?xml version="1.0" standalone="no"?><!DOCTYPE svg PUBLIC "-//W3C//DTD SVG 1.1//EN" "http://www.w3.org/Graphics/SVG/1.1/DTD/svg11.dtd"><svg t="1501222414871" class="icon" style="" viewBox="0 0 1024 1024" version="1.1" xmlns="http://www.w3.org/2000/svg" p-id="2384" xmlns:xlink="http://www.w3.org/1999/xlink" width="24" height="24"><defs><style type="text/css"></style></defs><path d="M508.720304 62.933331c-243.392356 0-440.701141 197.307761-440.701141 440.702164 0 243.392356 197.308785 440.700117 440.701141 440.700117s440.701141-197.307761 440.701141-440.700117C949.421444 260.241093 752.11266 62.933331 508.720304 62.933331zM678.494988 413.293931c-16.576537 15.7231-33.819247 32.435737-51.211359 50.66082-19.216667 20.138666-39.295981 42.522466-60.672848 67.134003-36.208667 41.691541-84.938508 100.913341-132.031059 167.630858L256.881578 524.213159l99.951433-79.855746 85.148285 81.522712c33.93181-29.402657 68.971861-57.854663 96.248088-79.021751 15.71082-12.189623 30.609135-23.815405 45.040822-34.397415 14.56881-10.68434 30.026874-21.898753 46.684252-33.568537 28.586059-20.023032 65.60723-46.078455 104.071264-70.472028l26.527167 35.654035C739.779773 356.791056 706.748473 386.486378 678.494988 413.293931z" p-id="2385" fill="#06c1ae"></path></svg>