<?xml version="1.0" standalone="no"?><!DOCTYPE svg PUBLIC "-//W3C//DTD SVG 1.1//EN" "http://www.w3.org/Graphics/SVG/1.1/DTD/svg11.dtd"><svg t="1500715975082" class="icon" style="" viewBox="0 0 1024 1024" version="1.1" xmlns="http://www.w3.org/2000/svg" p-id="19120" xmlns:xlink="http://www.w3.org/1999/xlink" width="36" height="36"><defs><style type="text/css"></style></defs><path d="M573.446144 434.374656c-26.929152 11.085824-51.612672 25.868288-74.054656 44.346368-22.441984 18.480128-41.842688 39.601152-58.211328 63.361024-16.365568 23.7568-29.039616 49.763328-38.014976 78.012416-8.976384 28.24704-13.464576 57.94816-13.464576 89.09824 0 27.456512 3.565568 53.721088 10.692608 78.799872 7.124992 25.080832 17.027072 48.712704 29.70112 70.885376L408.70912 858.877952c-15.309824 0-33.127424-0.524288-53.45792-1.58208-20.325376-1.056768-41.312256-2.510848-62.96064-4.359168-21.646336-1.844224-43.165696-3.959808-64.546816-6.330368-21.387264-2.376704-40.788992-4.888576-58.211328-7.5264-17.427456-2.6368-32.210944-5.279744-44.352512-7.921664-12.145664-2.633728-19.801088-5.276672-22.965248-7.916544-5.809152-4.226048-10.162176-17.292288-13.070336-39.200768-2.900992-21.914624-1.716224-50.033664 3.56352-84.34688 2.108416-13.201408 6.470656-24.030208 13.065216-32.474112 6.603776-8.449024 14.654464-15.706112 24.160256-21.776384 9.500672-6.075392 20.064256-10.958848 31.681536-14.654464 11.613184-3.69664 23.493632-7.26016 35.64032-10.694656 12.140544-3.433472 23.888896-7.129088 35.236864-11.08992 11.355136-3.958784 21.781504-8.841216 31.287296-14.649344 11.085824-6.866944 19.668992-13.597696 25.739264-20.196352 6.070272-6.59968 10.433536-13.06624 13.069312-19.405824 2.640896-6.330368 3.95776-12.93312 3.95776-19.798016 0-6.86592-0.26112-14.517248-0.7936-22.966272-1.055744-12.143616-5.276672-21.777408-12.669952-28.905472-7.39328-7.126016-15.572992-14.393344-24.551424-21.78048-4.224-3.69664-8.04864-8.844288-11.48416-15.449088-3.4304-6.59456-6.465536-13.32736-9.106432-20.192256-2.640896-7.921664-5.276672-16.099328-7.917568-24.554496-3.697664-1.051648-7.39328-2.902016-11.08992-5.542912-3.168256-2.635776-6.59968-6.332416-10.295296-11.085824-3.697664-4.753408-6.8608-11.618304-9.501696-20.595712-2.640896-8.973312-3.70176-17.156096-3.16928-24.546304 0.528384-7.39328 2.108416-13.996032 4.749312-19.801088 2.116608-5.809152 5.542912-11.35616 10.299392-16.631808 0-20.064256 1.051648-40.127488 3.16416-60.19072 2.112512-16.899072 5.809152-35.111936 11.090944-54.647808 5.279744-19.539968 13.463552-36.963328 24.5504-52.274176 10.561536-14.78656 21.912576-26.795008 34.055168-36.03456 12.145664-9.239552 24.81664-16.498688 38.018048-21.77536 13.198336-5.285888 26.262528-8.845312 39.199744-10.696704C384.029696 65.434624 396.567552 64.512 408.70912 64.512c15.315968 0 30.492672 1.716224 45.5424 5.147648 15.04768 3.434496 29.17376 8.050688 42.372096 13.85984 13.202432 5.808128 24.943616 12.408832 35.245056 19.801088 10.2912 7.392256 18.347008 14.782464 24.15104 22.17472 13.729792 16.894976 23.759872 35.5072 30.097408 55.832576 6.336512 20.330496 10.8288 39.733248 13.461504 58.215424 2.643968 21.115904 3.961856 42.50112 3.961856 64.149504 3.69664 2.640896 6.598656 6.071296 8.712192 10.295296 2.112512 3.697664 3.82976 8.450048 5.147648 14.255104 1.321984 5.808128 1.455104 12.937216 0.39936 21.385216-1.056768 11.619328-3.3024 20.72576-6.7328 27.32544-3.434496 6.598656-7.259136 11.746304-11.488256 15.44192-4.749312 4.221952-9.764864 7.129088-15.044608 8.712192-1.056768 3.165184-2.112512 6.603776-3.165184 10.2912l-3.96288 11.09504C576.34816 426.186752 575.025152 430.145536 573.446144 434.374656L573.446144 434.374656 573.446144 434.374656zM686.696448 459.711488c34.322432 0 66.660352 6.602752 97.019904 19.800064 30.358528 13.203456 56.763392 31.154176 79.197184 53.856256 22.443008 22.704128 40.264704 49.232896 53.458944 79.592448 13.202432 30.363648 19.801088 62.698496 19.801088 97.022976 0 34.320384-6.593536 66.658304-19.801088 97.017856-13.19936 30.358528-31.015936 56.884224-53.458944 79.5904-22.433792 22.709248-48.837632 40.52992-79.197184 53.46304-30.359552 12.936192-62.698496 19.39968-97.019904 19.39968-34.84672 0-67.45088-6.468608-97.810432-19.39968-30.35648-12.937216-56.76032-30.753792-79.198208-53.46304-22.438912-22.706176-40.259584-49.23392-53.45792-79.5904-13.202432-30.359552-19.801088-62.698496-19.801088-97.017856 0-34.32448 6.59968-66.659328 19.801088-97.022976 13.198336-30.358528 31.019008-56.88832 53.45792-79.592448 22.437888-22.70208 48.841728-40.6528 79.198208-53.856256C619.244544 466.313216 651.848704 459.711488 686.696448 459.711488L686.696448 459.711488 686.696448 459.711488zM832.420864 660.878336c3.173376-10.556416 1.717248-20.192256-4.354048-28.909568-6.071296-8.711168-14.12096-14.913536-24.155136-18.610176-10.03008-3.693568-20.063232-3.958784-30.098432-0.790528-10.029056 3.16928-17.41824 11.353088-22.170624 24.5504-2.640896 8.978432-5.146624 17.292288-7.527424 24.953856-2.373632 7.652352-4.753408 15.702016-7.12704 24.15104-2.373632 8.451072-5.275648 17.554432-8.712192 27.328512-3.4304 9.764864-7.78752 20.985856-13.068288 33.656832-5.277696 13.724672-12.804096 20.196352-22.571008 19.39968-9.767936-0.791552-17.291264-6.463488-22.571008-17.026048-5.809152-10.560512-11.224064-21.909504-16.234496-34.052096-5.018624-12.145664-9.901056-24.032256-14.654464-35.639296-4.75648-11.619328-8.977408-22.182912-12.674048-31.681536-3.692544-9.506816-6.8608-17.164288-9.505792-22.976512-4.219904-8.44288-11.213824-13.19424-20.98176-14.247936-9.767936-1.055744-19.277824 0.396288-28.51328 4.352-9.239552 3.959808-16.894976 10.167296-22.967296 18.614272-6.070272 8.450048-6.996992 17.688576-2.771968 27.718656 3.69664 10.561536 7.916544 22.441984 12.668928 35.64032 4.749312 13.201408 9.773056 26.66496 15.048704 40.392704 5.280768 13.725696 10.292224 27.191296 15.048704 40.392704 4.753408 13.197312 8.973312 24.5504 12.670976 34.052096 7.919616 20.063232 19.934208 35.115008 36.033536 45.144064 16.109568 10.036224 33.000448 15.31392 50.690048 15.839232 17.68448 0.530432 34.582528-3.434496 50.688-11.8784 16.106496-8.448 27.8528-21.12 35.24096-38.014976 5.809152-13.725696 11.752448-28.112896 17.8176-43.164672 6.075392-15.040512 11.884544-29.699072 17.430528-43.9552 5.538816-14.256128 10.691584-27.98592 15.439872-41.18528C825.293824 681.731072 829.252608 670.381056 832.420864 660.878336L832.420864 660.878336 832.420864 660.878336zM832.420864 660.878336" p-id="19121" fill="#4a4a4a"></path></svg>