<?xml version="1.0" standalone="no"?><!DOCTYPE svg PUBLIC "-//W3C//DTD SVG 1.1//EN" "http://www.w3.org/Graphics/SVG/1.1/DTD/svg11.dtd"><svg t="1501755193077" class="icon" style="" viewBox="0 0 1024 1024" version="1.1" xmlns="http://www.w3.org/2000/svg" p-id="4137" xmlns:xlink="http://www.w3.org/1999/xlink" width="36" height="36"><defs><style type="text/css"></style></defs><path d="M956.5 272.4c-12.9-52.4-60.1-91.5-116.4-91.5H183.9c-56.1 0-103.5 39.2-116.4 91.5h889zM682.4 491.2h-35v68.2h35c12.2 0 22.4-1.1 30.6-3.3 8.2-2.3 14.5-5.9 18.8-10.9s6.5-11.7 6.5-19.9c0-9.8-3.3-17.9-9.9-24-7.6-6.8-22.9-10.1-46-10.1z" fill="#8a93ff" p-id="4138"></path><path d="M64 329.7v393.5c0 65.9 54 119.9 119.9 119.9h656.2c65.9 0 119.9-54 119.9-119.9V329.7H64z m379.9 151.2c-0.7 2.6-1.6 5.1-2.6 7.6s-2 5-3.2 7.6l-61.9 145.7c-2.2 5.6-4.4 10.9-6.6 15.9s-4.8 9.5-7.6 13.2c-3 3.8-6.8 6.9-11.6 9.3-4.8 2.4-10.7 3.6-17.8 3.6-7.1 0-12.9-1.1-17.8-3.5-4.8-2.4-8.8-5.6-11.7-9.5-3-3.9-5.6-8.3-7.7-13.3-2.2-5-4.4-10.2-6.6-15.8l-60.9-144.5c-1-2.6-2.2-5.2-3.2-7.7-1.1-2.5-2-5.2-2.7-8.2-0.8-3-1.1-5.5-1.1-7.4 0-5.1 2.4-9.9 7.2-14.1 4.8-4.2 10.7-6.4 18-6.4 8.9 0 15.1 2.4 18.8 7.1s7.4 12.3 11.3 22.5l57.7 149.5L392 481.9c3.1-7.9 5.2-13.4 6.8-16.5 1.5-3.1 4-5.9 7.5-8.3 3.5-2.5 8.3-3.8 14.3-3.8 4.4 0 8.5 0.9 12.3 2.8 3.8 1.9 6.7 4.4 8.9 7.6 2.2 3.2 3.2 6.4 3.2 9.7-0.1 2.5-0.5 4.9-1.1 7.5z m93.8 175.7c0 9.2-2.4 16.2-7.3 20.7-4.8 4.6-11.2 6.8-18.9 6.8-7.4 0-13.5-2.3-18.4-6.9-4.8-4.7-7.3-11.5-7.3-20.6V480.8c0-9.1 2.4-15.9 7.2-20.5 4.8-4.6 10.9-6.8 18.4-6.8 7.7 0 14.1 2.3 18.9 6.7 4.8 4.6 7.3 11.4 7.3 20.6v175.8h0.1z m229-80.7c-16.1 11.7-40 17.5-71.7 17.5h-47.5v63.2c0 9-2.4 15.8-7.3 20.5-4.9 4.7-11 6.9-18.4 6.9-7.7 0-14.1-2.3-18.9-6.9-4.8-4.7-7.2-11.4-7.2-20.3V484.9c0-9.9 2.6-17.1 7.9-21.3s13.5-6.4 24.9-6.4H695c19.7 0 34.8 1.4 45.4 4 10.5 2.5 19.5 6.7 27.1 12.6 7.6 5.9 13.4 13.1 17.4 21.6 4 8.5 5.9 18.1 5.9 28.8 0 22.8-8.1 39.9-24.1 51.7z" fill="#8a93ff" p-id="4139"></path></svg>