<?xml version="1.0" standalone="no"?><!DOCTYPE svg PUBLIC "-//W3C//DTD SVG 1.1//EN" "http://www.w3.org/Graphics/SVG/1.1/DTD/svg11.dtd"><svg t="1502077750972" class="icon" style="" viewBox="0 0 1024 1024" version="1.1" xmlns="http://www.w3.org/2000/svg" p-id="1511" xmlns:xlink="http://www.w3.org/1999/xlink" width="36" height="36"><defs><style type="text/css"></style></defs><path d="M874.244254 815.005059l-724.337059 0c-28.554336 0-51.711755-22.738887-51.711755-50.66389L98.195439 465.384309l827.761594 0 0 299.009048C925.957033 792.266172 902.798591 815.005059 874.244254 815.005059L874.244254 815.005059zM796.650015 587.30408l-103.476723 0 0 101.223403 103.476723 0L796.650015 587.30408 796.650015 587.30408zM98.195439 258.378675c0-27.925003 23.157419-50.611701 51.711755-50.611701l724.337059 0c28.554336 0 51.712779 22.686698 51.712779 50.611701l0 133.393079L98.195439 391.771755 98.195439 258.378675 98.195439 258.378675z" p-id="1512" fill="#4a4a4a"></path></svg>