<?xml version="1.0" standalone="no"?><!DOCTYPE svg PUBLIC "-//W3C//DTD SVG 1.1//EN" "http://www.w3.org/Graphics/SVG/1.1/DTD/svg11.dtd"><svg t="1501928068880" class="icon" style="" viewBox="0 0 1024 1024" version="1.1" xmlns="http://www.w3.org/2000/svg" p-id="8113" xmlns:xlink="http://www.w3.org/1999/xlink" width="40" height="40"><defs><style type="text/css"></style></defs><path d="M512 0C229.376 0 0 229.376 0 512s229.376 512 512 512 512-229.376 512-512S794.624 0 512 0z m233.472 679.936c18.432 18.432 18.432 49.152 0 67.584-18.432 18.432-49.152 18.432-67.584 0L512 579.584l-167.936 167.936c-18.432 18.432-49.152 18.432-67.584 0-18.432-18.432-18.432-49.152 0-67.584l167.936-167.936-167.936-167.936c-18.432-18.432-18.432-49.152 0-67.584 18.432-18.432 49.152-18.432 67.584 0l167.936 167.936 167.936-167.936c18.432-18.432 49.152-18.432 67.584 0 18.432 18.432 18.432 49.152 0 67.584L579.584 512l165.888 167.936z" fill="#06c1ae" p-id="8114"></path></svg>