<?xml version="1.0" standalone="no"?><!DOCTYPE svg PUBLIC "-//W3C//DTD SVG 1.1//EN" "http://www.w3.org/Graphics/SVG/1.1/DTD/svg11.dtd"><svg t="1501727542715" class="icon" style="" viewBox="0 0 1024 1024" version="1.1" xmlns="http://www.w3.org/2000/svg" p-id="2382" xmlns:xlink="http://www.w3.org/1999/xlink" width="42" height="42"><defs><style type="text/css"></style></defs><path d="M947.712 682.496c23.04-56.32 34.304-115.712 34.304-176.64 0-60.928-11.776-120.32-34.304-176.64-23.552-58.368-58.368-110.592-102.912-155.136-45.056-45.056-97.28-79.36-155.136-102.912-56.32-23.04-115.712-34.304-176.64-34.304-60.928 0-120.32 11.776-176.64 34.304-58.368 23.552-110.592 58.368-155.136 102.912-45.056 45.056-79.36 97.28-102.912 155.136-23.04 56.32-34.304 115.712-34.304 176.64 0 60.928 11.776 120.32 34.304 176.64 23.552 58.368 58.368 110.592 102.912 155.136 44.544 44.544 97.28 79.36 155.136 102.912 56.32 23.04 115.712 34.304 176.64 34.304 60.928 0 120.32-11.776 176.64-34.304 58.368-23.552 110.592-58.368 155.136-102.912 44.544-45.056 79.36-97.28 102.912-155.136z m-720.896 109.568c-157.696-157.696-157.696-414.72 0-572.416 157.696-157.696 414.72-157.696 572.416 0 157.696 157.696 157.696 414.72 0 572.416-158.208 157.696-414.72 157.696-572.416 0z" fill="#06c1ae" p-id="2383"></path><path d="M755.712 470.016H542.72v-212.992c0-18.432-14.848-33.28-33.28-33.28s-33.28 14.848-33.28 33.28v212.992h-212.992c-18.432 0-33.28 14.848-33.28 33.28s14.848 33.28 33.28 33.28h212.992v212.992c0 18.432 14.848 33.28 33.28 33.28s33.28-14.848 33.28-33.28v-212.992h212.992c18.432 0 33.28-14.848 33.28-33.28s-14.848-33.28-33.28-33.28z" fill="#06c1ae" p-id="2384"></path></svg>