<?xml version="1.0" standalone="no"?><!DOCTYPE svg PUBLIC "-//W3C//DTD SVG 1.1//EN" "http://www.w3.org/Graphics/SVG/1.1/DTD/svg11.dtd"><svg t="1501904265998" class="icon" style="" viewBox="0 0 1024 1024" version="1.1" xmlns="http://www.w3.org/2000/svg" p-id="2934" xmlns:xlink="http://www.w3.org/1999/xlink" width="26" height="26"><defs><style type="text/css"></style></defs><path d="M874.35166 572.088c-18.485 0-33.471 15.107-33.471 33.738v212.205c0 13.871-11.156 25.115-24.916 25.115H210.31566c-13.76 0-24.916-11.244-24.916-25.115V606.605c0-18.633-14.986-33.738-33.472-33.738s-33.472 15.105-33.472 33.738v211.426c0 51.137 41.127 92.592 91.857 92.592h605.651c50.731 0 91.857-41.455 91.857-92.592V605.828c0.003-18.633-14.982-33.74-33.469-33.74zM799.15966 212.753H217.33366c-10.495 0-19.081 8.586-19.081 19.08v22.012c0 10.493 8.586 19.079 19.081 19.079h581.826c10.492 0 19.078-8.586 19.078-19.079v-22.012c0.001-10.494-8.584-19.08-19.078-19.08z" p-id="2935" fill="#666666" class="selected"></path><path d="M1022.22366 428.952c-0.845-7.202-9.444-26.256-16.679-39.129l-0.271 0.21a24.242 24.242 0 0 0-1.859-4.082L872.93066 148.795l-3.581-5.639c-0.746-1-1.432-1.98-2.094-2.922-6.137-8.718-18.912-26.858-47.809-26.858h-625.16c-16.485 0-35.222 9.414-47.732 23.984l-2.393 2.786L14.55966 373.475c-1.653 3.313-2.828 6.576-3.594 9.708-0.24 0.711-0.448 1.491-0.611 2.365-45.856 145.13 68.787 262.546 182.757 267.624 70.499 0 132.562-37.092 167.997-92.928 35.561 55.848 96.702 92.781 166.024 92.781 69.932 0 131.535-37.586 166.954-94.256 33.051 57.287 92.526 93.885 164.089 93.885 53.332 0 98.097-23.063 128.438-75.119 22.886-39.267 44.058-76.51 35.61-148.583z m-82.721 114.487c-20.673 30.258-49.028 40.699-79.268 40.699-66.57 0-116.237-45.99-125.867-112.15 0.092-12.422-12.366-24.649-23.842-24.649h-19.818c-0.507 0-1.01 0.03-1.506 0.078h-9.47c-12.113 0.732-20.392 9.729-20.201 24.826 0.883 70.336-63.129 112.739-132.399 112.739-68.21 0-124.584-53.436-132.084-121.981-0.978-8.914-8.384-15.583-17.052-15.583h-10.068c-5.525-0.422-11.264 0-16.195 0h-6.253c-10.234 0-19.677 8.373-20.726 18.635-6.852 67.083-63.277 117.259-131.643 117.568-73.89 0.334-147.767-106.923-123.051-173.99 0.006-0.009 0.009-0.018 0.013-0.028 1.761-3.37 3.674-7.436 5.774-12.329l121.363-215.855h617.69c0.412 0.583 0.848 1.194 1.31 1.832l133.047 231.986c5.166 5.69 11.395 24.243 11.963 25.676 0.511 1.288 0.947 2.066 1.354 2.472 8.247 36.686-11.55 83.191-23.071 100.054z" p-id="2936" fill="#666666"></path></svg>