<?xml version="1.0" standalone="no"?><!DOCTYPE svg PUBLIC "-//W3C//DTD SVG 1.1//EN" "http://www.w3.org/Graphics/SVG/1.1/DTD/svg11.dtd"><svg t="1500710376050" class="icon" style="" viewBox="0 0 1024 1024" version="1.1" xmlns="http://www.w3.org/2000/svg" p-id="17011" xmlns:xlink="http://www.w3.org/1999/xlink" width="36" height="36"><defs><style type="text/css"></style></defs><path d="M851.4 760.9L602.5 512l248.9-248.9c12.4-12.4 12.4-32.8 0-45.3l-45.3-45.3c-12.4-12.4-32.8-12.4-45.3 0L512 421.5 263.1 172.6c-12.4-12.4-32.8-12.4-45.3 0l-45.3 45.3c-12.4 12.4-12.4 32.8 0 45.3l249 248.8-248.9 248.9c-12.4 12.4-12.4 32.8 0 45.3l45.3 45.3c12.4 12.4 32.8 12.4 45.3 0l248.8-249 248.9 248.9c12.4 12.4 32.8 12.4 45.3 0l45.3-45.3c12.4-12.4 12.4-32.8-0.1-45.2z" p-id="17012" fill="#ffffff"></path></svg>