<?xml version="1.0" standalone="no"?><!DOCTYPE svg PUBLIC "-//W3C//DTD SVG 1.1//EN" "http://www.w3.org/Graphics/SVG/1.1/DTD/svg11.dtd"><svg t="1501827342475" class="icon" style="" viewBox="0 0 1024 1024" version="1.1" xmlns="http://www.w3.org/2000/svg" p-id="6258" xmlns:xlink="http://www.w3.org/1999/xlink" width="40" height="40"><defs><style type="text/css"></style></defs><path d="M906.419 689.119c-14.298 0-25.859 11.581-25.979 25.882v131.88c0 28.701-23.24 51.961-51.939 51.961H103.91c-28.681 0-51.95-23.26-51.95-51.961V177.129c0-28.7 23.27-51.95 51.95-51.95h724.569c28.721 0 51.961 23.25 51.961 51.95V316.61c0 14.351 11.64 25.98 26 25.98 14.34 0 25.96-11.629 25.96-25.98V171.94c0-54.531-44.2-98.72-98.72-98.72H98.71C44.189 73.22 0 117.409 0 171.94v680.12c0 54.542 44.189 98.721 98.71 98.721h734.971c54.52 0 98.72-44.179 98.72-98.721V715.001c-0.042-14.301-11.681-25.882-25.982-25.882z" p-id="6259" fill="#666666"></path><path d="M925.279 379.379H546.8c-51.14 0-92.68 39-97.72 88.81-0.58 0.91-0.99 2.191-1.01 4.49V554.9c0 54.52 44.19 98.72 98.729 98.72h378.479c54.521 0 98.721-44.2 98.721-98.72V478.1c0.001-54.53-44.199-98.721-98.72-98.721z m46.762 170.342c0 28.699-23.301 51.938-51.961 51.938H552c-28.711 0-51.96-23.239-51.96-51.938V483.29c0-28.65 23.249-51.95 51.96-51.95h368.08c28.66 0 51.961 23.3 51.961 51.95v66.431z" p-id="6260" fill="#666666"></path><path d="M890.42 484.26c-17.52 0-31.699 14.19-31.699 31.709 0 17.471 14.18 31.652 31.699 31.652 17.501 0 31.7-14.182 31.7-31.652 0-17.519-14.199-31.709-31.7-31.709z" p-id="6261" fill="#666666"></path></svg>