<?xml version="1.0" standalone="no"?><!DOCTYPE svg PUBLIC "-//W3C//DTD SVG 1.1//EN" "http://www.w3.org/Graphics/SVG/1.1/DTD/svg11.dtd"><svg t="1501826999669" class="icon" style="" viewBox="0 0 1024 1024" version="1.1" xmlns="http://www.w3.org/2000/svg" p-id="4216" xmlns:xlink="http://www.w3.org/1999/xlink" width="40" height="40"><defs><style type="text/css"></style></defs><path d="M907.636 93.09H116.364C52.364 93.09 0 145.456 0 209.456v605.09c0 64 52.364 116.364 116.364 116.364h791.272c64 0 116.364-52.364 116.364-116.364v-605.09c0-64-52.364-116.364-116.364-116.364z m-493.381 46.546h195.49v420.539l-73.774-39.331c-7.447-3.957-15.593-6.051-23.971-6.051s-16.756 2.094-23.97 6.05l-73.775 39.332V139.636z m-367.71 69.819c0-38.4 31.419-69.819 69.819-69.819h251.345v189.44H46.545V209.455z m930.91 605.09c0 38.4-31.419 69.819-69.819 69.819H116.364c-38.4 0-69.819-31.419-69.819-69.819V375.622H367.71v223.185c0 13.498 11.171 23.273 23.273 23.273 3.723 0 7.447-0.93 10.938-2.793l107.985-57.483c0.699-0.466 1.397-0.466 2.095-0.466s1.396 0.233 2.095 0.466l107.985 57.483c3.49 1.862 7.215 2.793 10.938 2.793 12.102 0 23.273-9.775 23.273-23.273v-459.17h251.345c38.4 0 69.819 31.418 69.819 69.818v605.09zM253.673 488.03h-93.091c-12.8 0-23.273 10.472-23.273 23.272 0 12.8 10.473 23.273 23.273 23.273h93.09c12.8 0 23.273-10.473 23.273-23.273 0-12.8-10.472-23.273-23.272-23.273z" p-id="4217" fill="#666666"></path></svg>