<?xml version="1.0" standalone="no"?><!DOCTYPE svg PUBLIC "-//W3C//DTD SVG 1.1//EN" "http://www.w3.org/Graphics/SVG/1.1/DTD/svg11.dtd"><svg t="1501827737342" class="icon" style="" viewBox="0 0 1024 1024" version="1.1" xmlns="http://www.w3.org/2000/svg" p-id="12481" xmlns:xlink="http://www.w3.org/1999/xlink" width="40" height="40"><defs><style type="text/css"></style></defs><path d="M777.984 960a126.933 126.933 0 0 1-125.056-128.533 173.952 173.952 0 0 1 2.133-17.344H430.23c-2.837 1.493 3.371 0 0 0h-61.333l-9.75 4.714A126.55 126.55 0 0 1 234.838 932.78a138.197 138.197 0 0 1-131.712-118.656H41.771a17.067 17.067 0 0 1-20.438-16.598V466.22a21.995 21.995 0 0 1 2.987-11.136L135.253 268.8a116.757 116.757 0 0 1 110.934-59.03h163.562C413.291 131.585 474.475 64 551.51 64h307.435a145.899 145.899 0 0 1 143.723 147.69v488.747a115.2 115.2 0 0 1-100.48 115.499 139.37 139.37 0 0 1 0.853 15.53A126.933 126.933 0 0 1 777.984 960z m0-214.421a85.93 85.93 0 1 0 83.605 85.909 84.928 84.928 0 0 0-83.605-85.91z m-543.147-27.243a85.952 85.952 0 0 0 0 171.861 85.973 85.973 0 0 0 0-171.861z m0-42.667A126.101 126.101 0 0 1 356.95 776.384c0.918-0.107-9.472-3.947-8.533-3.947h61.333V251.541H246.23a76.8 76.8 0 0 0-75.69 39.83L62.805 472.256l-0.576 300.203h61.334c12.522-57.472 51.69-96.768 111.274-96.768z m215.83 96.768h224.896a110.165 110.165 0 0 1 102.4-69.482 124.907 124.907 0 0 1 111.872 70.997 72.64 72.64 0 0 0 71.36-73.536V211.691A104.15 104.15 0 0 0 859.54 105.685H552.896a103.04 103.04 0 0 0-102.23 104.192V772.46l-1.407 1.514zM287.104 501.504H144c-11.477 0-16.725-18.73-16.725-30.55s25.6-11.114 37.162-11.114h102.23V334.933a20.437 20.437 0 1 1 40.896 0V480.79a20.33 20.33 0 0 1-20.438 20.843z m0 0" p-id="12482" fill="#666666"></path></svg>