<?xml version="1.0" standalone="no"?><!DOCTYPE svg PUBLIC "-//W3C//DTD SVG 1.1//EN" "http://www.w3.org/Graphics/SVG/1.1/DTD/svg11.dtd"><svg t="1501642788953" class="icon" style="" viewBox="0 0 1137 1024" version="1.1" xmlns="http://www.w3.org/2000/svg" p-id="2692" xmlns:xlink="http://www.w3.org/1999/xlink" width="39.97265625" height="36"><defs><style type="text/css"></style></defs><path d="M414.150498 634.159985a37.698315 37.698315 0 0 1-50.251778-15.322051l-2.806514-5.613029-103.347995-226.720849a15.890939 15.890939 0 0 1-2.123849-7.661026c0-10.46754 8.381617-18.849157 18.887083-18.849157a19.342194 19.342194 0 0 1 11.150206 3.48918l122.235078 86.508908a55.751029 55.751029 0 0 0 50.289703 5.575103L1033.707506 200.250109C930.321585 78.887326 760.641243 0.001517 568.546713 0.001517 254.861845-0.681149 0 211.400315 0 473.012964c0 142.335789 76.837812 271.397524 196.266376 357.906433 9.784874 6.97836 16.080569 18.811231 16.080569 30.719955 0 4.171846-0.720592 8.343691-2.123849 12.515537l-25.827517 95.573191c-1.403257 4.171846-2.806514 9.102209-2.806515 13.95672 0 10.46754 8.381617 18.849157 18.849158 18.849158 4.171846 0 7.698952-1.403257 11.188131-3.48918l124.321001-71.869523c9.102209-5.575103 19.569749-8.343691 30.037289-9.064283 5.575103 0 11.188132 0.720592 16.763234 2.806514 60.757243 17.4459 122.917744 25.789591 185.798836 25.789591C882.838396 946.707077 1137.776092 734.625614 1137.776092 473.012964c0-78.127292-23.058929-154.16866-64.967015-219.742489l-655.131474 378.120921-3.48918 2.768589z" fill="#00B700" p-id="2693"></path></svg>