<?xml version="1.0" standalone="no"?><!DOCTYPE svg PUBLIC "-//W3C//DTD SVG 1.1//EN" "http://www.w3.org/Graphics/SVG/1.1/DTD/svg11.dtd"><svg t="1501755098595" class="icon" style="" viewBox="0 0 1024 1024" version="1.1" xmlns="http://www.w3.org/2000/svg" p-id="3353" xmlns:xlink="http://www.w3.org/1999/xlink" width="36" height="36"><defs><style type="text/css"></style></defs><path d="M511.447668 138.218992c123.536594 0 247.078305-0.072655 370.614899 0.094144 13.9405 0 28.072359 0.11154 41.868573 1.922792 66.564022 8.726755 99.461269 45.026496 99.651604 112.205525 0.496304 167.047574 0.557702 334.10845 0 501.138628-0.257873 72.746838-48.470945 122.457006-121.072473 122.69339-261.024945 0.748037-522.090822 0.810459-783.15977-0.096191-72.350818-0.217964-118.192889-46.587038-118.612445-118.656447-0.955768-166.254511-0.955768-332.531536 0-498.813676 0.419556-80.778768 40.443108-119.847575 121.457236-120.283504C251.959729 137.687896 381.689373 138.218992 511.447668 138.218992L511.447668 138.218992 511.447668 138.218992zM398.793936 706.318684c0-33.047674 1.530866-63.317071-0.390903-93.396133-2.409886-37.518498-31.365358-71.618131-68.64952-74.524321-48.481178-3.783163-97.66639-3.835352-146.208966-0.452301-33.567513 2.341325-59.051931 25.294083-64.926732 58.246589-6.395664 35.881209-4.439102 73.216535-6.142907 110.126166L398.793936 706.318684 398.793936 706.318684 398.793936 706.318684zM343.544611 390.719796c-0.146333-47.866171-37.681204-84.922135-86.286202-85.173868-49.257867-0.261966-87.660502 37.6986-87.576591 86.581937 0.077771 48.542576 39.066761 87.09666 87.609337 86.660732C306.113093 478.301504 343.682757 439.966407 343.544611 390.719796L343.544611 390.719796 343.544611 390.719796zM682.073744 594.84994c45.059242 0 90.115414 0.251733 135.203308-0.094144 25.946952-0.184195 38.273698-10.017144 39.274492-29.872355 0.99977-21.621437-10.509355-34.350342-37.211507-34.602076-90.898243-0.826831-181.849698-0.826831-272.714172 0.140193-26.406416 0.251733-37.832653 13.304004-36.832883 35.054377 0.890276 20.045545 12.69616 29.139667 39.393195 29.312606C593.491243 595.040275 637.740026 594.84994 682.073744 594.84994L682.073744 594.84994 682.073744 594.84994zM682.515812 711.887516l0 0.167822c44.959981 0 89.984431 0.317225 135.01195-0.107447 25.886577-0.25071 38.71065-10.742668 39.023782-30.045293 0.313132-19.122523-12.945847-32.789801-36.994566-32.975019-91.550089-0.704035-183.129854-0.485047-274.66971 0.295735-8.457626 0.061398-20.308535 3.752464-24.49488 9.895371-5.814426 8.586562-11.242042 24.37106-7.128351 31.083949 6.17156 9.973142 20.559245 20.145829 31.936363 20.710694C590.869532 713.199395 636.739233 711.887516 682.515812 711.887516L682.515812 711.887516 682.515812 711.887516zM731.572088 478.955396c28.66997 0 57.313334 0.330528 85.888136-0.122797 24.205285-0.358157 39.369659-12.208043 38.929638-30.532387-0.592494-23.840988-18.693758-29.514197-36.988426-29.828352-59.565631-0.99977-119.193683-0.99977-178.787966 0.028653-23.013133 0.424672-37.83163 14.729469-35.456536 31.40936 3.00238 21.464871 17.948791 29.124318 38.144762 29.062919C672.754494 478.893998 702.180687 478.955396 731.572088 478.955396L731.572088 478.955396 731.572088 478.955396zM731.572088 478.955396" p-id="3354" fill="#ff9500"></path></svg>