<?xml version="1.0" standalone="no"?><!DOCTYPE svg PUBLIC "-//W3C//DTD SVG 1.1//EN" "http://www.w3.org/Graphics/SVG/1.1/DTD/svg11.dtd"><svg t="1501828259829" class="icon" style="" viewBox="0 0 1024 1024" version="1.1" xmlns="http://www.w3.org/2000/svg" p-id="13709" xmlns:xlink="http://www.w3.org/1999/xlink" width="36" height="36"><defs><style type="text/css"></style></defs><path d="M331.825966 117.361965l6.506181 8.057513c0.409322 0.480954 0.687662 1.000793 1.139963 1.412163l59.922764 74.4312 202.651466 0 60.028165-74.56116c0.154519-0.151449 0.260943-0.344854 0.408299-0.51984l7.107885-8.819876-1.207501-2.406816c0.51984-2.018983 1.251503-3.975545 1.251503-6.169513 0-10.645454-6.699586-19.658735-16.105816-23.372314l-0.817622-1.606591c0 0-79.796394-17.069771-151.99167-16.764825-68.988234 0.258896-151.9886 16.764825-151.9886 16.764825l-0.818645 1.589195c-9.451256 3.669576-16.21224 12.701277-16.21224 23.38971 0 2.237971 0.731664 4.231371 1.290389 6.294356L331.825966 117.361965zM611.824031 251.373121 406.4782 251.373121c-161.205519 55.68423-294.183136 232.238318-294.183136 401.405159 0 204.203822 117.281123 303.567877 396.86475 303.567877 279.586696 0 396.86782-99.365078 396.86782-303.567877C906.027633 483.611439 773.047969 307.057351 611.824031 251.373121zM619.142717 654.216026l0 0.106424c18.565844 0.130983 33.56956 15.072277 33.56956 33.534767 0 18.460444-15.008832 33.425274-33.56956 33.532721l-68.208475 0.044002 0 33.771151-0.385786 0c0.533143 2.631944 0.836041 5.364171 0.836041 8.16496 0 23.176862-18.905582 41.959647-42.225707 41.959647-23.311939 0-42.217521-18.781762-42.217521-41.959647 0-2.800789 0.303922-5.533017 0.836041-8.16496l-0.707105 0 0-33.771151-67.502393 0 0-0.044002c-0.067538 0-0.128937 0.044002-0.173962 0.044002-18.645662 0-33.782408-15.052834-33.782408-33.576723 0-18.525935 15.136745-33.534767 33.782408-33.534767l0.173962 0 0-0.106424 67.502393 0 0-33.42732-67.502393 0 0-0.064468c-0.067538 0-0.128937 0.020466-0.173962 0.020466-18.645662 0-33.782408-15.029298-33.782408-33.532721 0-18.553565 15.136745-33.577746 33.782408-33.577746l0.173962 0 0-0.064468 61.57745 0c0.559748-2.131547 1.486864-4.131087 2.888793-5.931083l-75.769684-75.27952c-9.368368-9.29469-6.332219-27.453259 6.803963-40.504506 13.112646-13.051247 31.370475-16.07307 40.759309-6.77531l74.087369 73.627904 68.599378-72.653717c10.701736-11.576663 32.318056-8.770757 45.559639 4.498454 13.154601 13.202697 19.766183 25.236777 6.760984 39.811728l-79.771835 81.029478c-0.066515 0.762363 0.148379 1.431605 0.017396 2.175549l68.061119 0 0 0.088004c18.565844 0.106424 33.56956 15.071254 33.56956 33.553187 0 18.441001-15.008832 33.405831-33.56956 33.512255l0 0.064468-68.208475 0 0 33.42732L619.142717 654.213979z" p-id="13710" fill="#06c1ae"></path></svg>