<?xml version="1.0" standalone="no"?><!DOCTYPE svg PUBLIC "-//W3C//DTD SVG 1.1//EN" "http://www.w3.org/Graphics/SVG/1.1/DTD/svg11.dtd"><svg t="1501827819726" class="icon" style="" viewBox="0 0 1024 1024" version="1.1" xmlns="http://www.w3.org/2000/svg" p-id="13021" xmlns:xlink="http://www.w3.org/1999/xlink" width="40" height="40"><defs><style type="text/css"></style></defs><path d="M92.9 421.6C134.8 230.2 305.3 87 509.2 87c235.4 0 426.3 190.8 426.3 426.3S744.7 939.5 509.2 939.5c-211.5 0-387-154-420.5-356" fill="#ffffff" p-id="13022"></path><path d="M509.2 961.1c-220 0-405.8-157.3-441.8-374L110 580c32.5 195.8 200.4 337.9 399.2 337.9 223.1 0 404.7-181.5 404.7-404.7S732.4 108.5 509.2 108.5c-188.7 0-355 133.6-395.3 317.7L71.8 417C116.4 213.3 300.4 65.4 509.2 65.4 756.1 65.4 957 266.3 957 513.2S756.2 961.1 509.2 961.1z" fill="#666666" p-id="13023" class="selected"></path><path d="M453.9 645.4c-5.4 0-10.7-2-14.9-6L281.2 488.3c-8.6-8.2-8.9-21.9-0.7-30.5 8.2-8.6 21.9-8.9 30.5-0.7l142.8 136.7L710 345.3c8.6-8.3 22.2-8.1 30.5 0.5s8.1 22.2-0.5 30.5l-271 263c-4.2 4.1-9.6 6.1-15.1 6.1z" fill="#666666" p-id="13024" class="selected"></path></svg>