<?xml version="1.0" standalone="no"?><!DOCTYPE svg PUBLIC "-//W3C//DTD SVG 1.1//EN" "http://www.w3.org/Graphics/SVG/1.1/DTD/svg11.dtd"><svg t="1501839828693" class="icon" style="" viewBox="0 0 1024 1024" version="1.1" xmlns="http://www.w3.org/2000/svg" p-id="8129" xmlns:xlink="http://www.w3.org/1999/xlink" width="250" height="250"><defs><style type="text/css"></style></defs><path d="M727.04 594.944c-4.096 0-8.192 3.584-8.192 8.192v31.744c0 4.096 3.584 8.192 8.192 8.192 4.096 0 8.192-3.584 8.192-8.192v-31.744c0-4.608-3.584-8.192-8.192-8.192z m-489.984 253.44h466.432c10.24 0 19.456-5.12 25.088-13.312 4.608-5.12 7.68-11.264 7.68-17.92v-151.04c0-4.096-3.584-8.192-8.192-8.192-4.096 0-8.192 3.584-8.192 8.192v150.016c0 3.584-2.56 7.68-6.144 11.776h-0.512c-2.56 1.024-5.12 1.024-7.68 1.024h-5.632c-12.8 0-24.064-9.216-27.136-21.504l-1.024-63.488v-15.36h-11.776c-1.024-0.512-2.56-0.512-3.584-0.512H268.8v-409.6c0-8.192 6.656-15.36 15.872-15.36h448.512c-8.192 8.192-13.312 18.944-13.312 31.744v236.032c0 4.096 3.584 8.192 8.192 8.192 4.096 0 8.192-3.584 8.192-8.192V413.184H798.72V324.096c0-1.536 0-2.56-0.512-3.584v-1.536c0-11.264-5.12-20.48-13.312-26.112-4.096-3.072-10.752-5.632-17.408-5.632H285.184c-16.896 0-31.232 13.824-31.232 31.744v410.112h-48.128v88.064c0 17.408 14.336 31.232 31.232 31.232z m498.688-514.048c0-15.36 12.288-27.648 28.16-27.648h5.632c3.584 0 7.168 0.512 10.752 2.048 4.608 4.096 7.68 9.216 8.192 15.36v79.36h-52.736V334.336zM221.696 744.96H629.76l26.112 1.024v55.296c0 2.048 0 4.096 0.512 6.144v10.24c0 5.632 1.536 11.264 4.608 15.36H237.568c-9.216 0-15.872-6.656-15.872-15.36v-72.704zM496.64 569.344c-1.536-1.024-3.072-1.024-4.096 0l-33.28 20.992c-3.072 1.536-3.584 5.632-2.56 9.216 1.536 3.072 4.096 5.12 7.68 3.072l31.232-19.456 34.816 19.456c1.024 1.024 1.536 1.024 2.56 1.024 2.56 0 4.096-1.536 5.12-3.584 1.024-3.584-0.512-7.68-3.072-9.216l-38.4-21.504z m-48.64-83.968v-1.024c0-4.096-3.072-7.168-7.168-7.168H345.6c-4.096 0-7.168 3.072-7.168 7.168v1.024c0 4.096 3.072 7.168 7.168 7.168h95.232c4.096 0.512 7.168-3.072 7.168-7.168z m-57.344 35.84c0-4.096-3.072-7.168-7.168-7.168h-1.024c-4.096 0-7.168 3.072-7.168 7.168v63.488c0 4.096 3.072 7.168 7.168 7.168h1.024c4.096 0 7.168-3.072 7.168-7.168v-63.488z m-7.68 96.768h-1.024c-4.096 0-7.168 3.072-7.168 7.168v11.264c0 4.096 3.072 7.168 7.168 7.168h1.024c4.096 0 7.168-3.072 7.168-7.168v-11.264c0.512-3.584-3.072-7.168-7.168-7.168z m279.552-132.608v-1.024c0-4.096-3.072-7.168-7.168-7.168h-95.232c-4.096 0-7.168 3.072-7.168 7.168v1.024c0 4.096 3.072 7.168 7.168 7.168H655.36c4.096 0.512 7.168-3.072 7.168-7.168z m-57.344 35.84c0-4.096-3.072-7.168-7.168-7.168h-1.024c-4.096 0-7.168 3.072-7.168 7.168v63.488c0 4.096 3.072 7.168 7.168 7.168h1.024c4.096 0 7.168-3.072 7.168-7.168v-63.488z m-7.68 96.768h-1.024c-4.096 0-7.168 3.072-7.168 7.168v11.264c0 4.096 3.072 7.168 7.168 7.168h1.024c4.096 0 7.168-3.072 7.168-7.168v-11.264c0.512-3.584-3.072-7.168-7.168-7.168z m-171.52 323.584H120.32c-4.096 0-7.68 3.072-7.68 7.68s3.072 7.68 7.68 7.68h305.664c4.096 0 7.68-3.072 7.68-7.68s-3.584-7.68-7.68-7.68z m121.344 0c-4.096 0-7.68 3.072-7.68 7.68s3.072 7.68 7.68 7.68c4.096 0 7.68-3.072 7.68-7.68s-3.072-7.68-7.68-7.68z m316.416 0h-286.208c-4.096 0-7.68 3.072-7.68 7.68s3.072 7.68 7.68 7.68h286.208c4.096 0 7.68-3.072 7.68-7.68s-3.584-7.68-7.68-7.68z m-347.136 0H455.68c-4.096 0-7.68 3.072-7.68 7.68s3.072 7.68 7.68 7.68h60.928c4.096 0 7.68-3.072 7.68-7.68s-3.584-7.68-7.68-7.68z m-26.624-793.6c20.48 0 35.84-15.872 35.84-35.84s-15.872-35.84-35.84-35.84-35.84 15.872-35.84 35.84 15.36 35.84 35.84 35.84z m0-60.416c14.336 0 25.088 11.776 25.088 25.088 0 14.336-11.776 25.088-25.088 25.088s-25.088-10.752-25.088-25.088 10.752-25.088 25.088-25.088z m395.264 110.592c0-15.872-12.288-28.16-28.16-28.16s-28.16 12.288-28.16 28.16 12.288 28.16 28.16 28.16 29.184-12.288 28.16-28.16z m-28.16 17.408c-9.216 0-17.408-8.704-17.408-17.408 0-9.216 7.68-17.408 17.408-17.408 9.216 0 17.408 8.704 17.408 17.408 0 9.216-7.68 17.408-17.408 17.408zM228.864 137.728c10.24 0 17.408-8.704 17.408-17.408 0-9.216-7.68-17.408-17.408-17.408-9.216 0-17.408 8.704-17.408 17.408-0.512 9.216 7.168 17.408 17.408 17.408z m0-25.088c4.096 0 7.68 3.072 7.68 7.68s-3.072 7.68-7.68 7.68c-3.584 0-7.68-4.096-7.68-8.192s3.072-7.168 7.68-7.168z m735.232 268.8v-3.072c0-2.56-1.536-4.096-4.096-4.096h-15.872c-2.56 0-4.096 1.536-4.096 4.096v3.072c0 2.56 1.536 4.096 4.096 4.096h15.872c1.024 0 3.072-1.536 4.096-4.096z m-34.816 16.384c0-2.56-1.536-4.096-4.096-4.096h-3.584c-2.56 0-4.096 1.536-4.096 4.096v14.848c0 2.56 1.536 4.096 4.096 4.096h4.096c1.536 0 4.096-1.536 3.072-4.096v-14.848zM346.112 240.64c4.096 0 7.68-3.072 7.68-7.68s-3.072-7.68-7.68-7.68c-3.584 0-7.68 3.072-7.68 7.68s3.072 7.68 7.68 7.68z m583.168 102.4c0-2.56-1.536-4.096-4.096-4.096h-3.584c-2.56 0-4.096 1.536-4.096 4.096v14.848c0 2.56 1.536 4.096 4.096 4.096h4.096c1.536 0 4.096-1.536 3.072-4.096V343.04z m40.96 184.832c-9.216 0-17.408 8.704-17.408 17.408 0 9.216 7.68 17.408 17.408 17.408 10.24 0 17.408-8.704 17.408-17.408 0.512-8.704-7.168-17.408-17.408-17.408z m0 24.064c-4.096 0-7.68-3.072-7.68-7.68s3.072-7.68 7.68-7.68c4.096 0 7.68 3.072 7.68 7.68s-3.072 7.68-7.68 7.68z m-65.536-177.664h-15.872c-2.56 0-4.096 1.536-4.096 4.096v3.072c0 2.56 1.536 4.096 4.096 4.096h16.384c1.536 0 3.072-1.536 3.584-4.096v-3.072c0-2.56-1.536-4.096-4.096-4.096zM92.16 425.984c1.536-1.536 1.536-4.096 0-5.632l-17.408-17.408 17.408-17.408c1.536-1.536 1.536-4.096 0-5.632l-1.536-1.536c-1.536-1.536-4.096-1.536-5.632 0l-17.408 17.408-17.408-17.408c-1.536-1.536-4.096-1.536-5.632 0l-1.536 1.536c-1.536 1.536-1.536 4.096 0 5.632l17.408 17.408-17.408 17.408c-1.536 1.536-1.536 4.096 0 5.632l1.536 1.536c1.536 1.536 4.096 1.536 5.632 0l17.408-17.408 17.408 17.408c1.536 1.536 4.096 1.536 5.632 0l1.536-1.536z m8.192 137.728c0-2.56-1.536-4.096-4.096-4.096h-3.072c-2.56 0-4.096 1.536-4.096 4.096v14.848c0 2.56 1.536 4.096 4.096 4.096h4.096c1.536 0 4.096-1.536 3.072-4.096v-14.848z m543.744-338.944c10.24 0 17.408-8.704 17.408-17.408 0-9.216-7.68-17.408-17.408-17.408-9.216 0-17.408 8.704-17.408 17.408s7.168 17.408 17.408 17.408z m0-26.112c4.096 0 7.68 3.072 7.68 7.68 0 4.096-3.072 7.68-7.68 7.68-4.096 0-7.68-3.072-7.68-7.68 0.512-4.608 3.584-7.68 7.68-7.68zM130.56 606.72c1.536 0 3.072-1.536 4.096-4.096v-3.584c0-2.56-1.536-4.096-4.096-4.096h-15.872c-2.56 0-4.096 1.536-4.096 4.096v3.072c0 2.56 1.536 4.096 4.096 4.096h15.872z m-54.784-11.776h-15.872c-2.56 0-4.096 1.536-4.096 4.096v3.072c0 2.56 1.536 4.096 4.096 4.096h16.384c1.536 0 3.072-1.536 3.584-4.096v-3.072c0-2.56-1.536-4.096-4.096-4.096z m24.576 23.552c0-2.56-1.536-4.096-4.096-4.096h-3.072c-2.56 0-4.096 1.536-4.096 4.096v14.848c0 2.56 1.536 4.096 4.096 4.096h4.096c1.536 0 4.096-1.536 3.072-4.096v-14.848z" p-id="8130" fill="#bfbfbf"></path></svg>