<?xml version="1.0" standalone="no"?><!DOCTYPE svg PUBLIC "-//W3C//DTD SVG 1.1//EN" "http://www.w3.org/Graphics/SVG/1.1/DTD/svg11.dtd"><svg t="1501755889320" class="icon" style="" viewBox="0 0 1024 1024" version="1.1" xmlns="http://www.w3.org/2000/svg" p-id="7724" xmlns:xlink="http://www.w3.org/1999/xlink" width="36" height="36"><defs><style type="text/css"></style></defs><path d="M964.2496 115.5072 59.7504 115.5072c-27.7504 0-50.2272 22.4768-50.2272 50.2272l0 569.5488c0 27.7504 22.4768 50.2272 50.2272 50.2272l904.5504 0c27.7504 0 50.2272-22.4768 50.2272-50.2272L1014.528 165.7856C1014.528 138.0352 992 115.5072 964.2496 115.5072M672.4096 405.3504l0 74.6496-116.6848 0 0 24.832 116.6848 0 0 74.6496-116.6848 0 0 88.8832L473.7024 668.3648l0-88.8832L344.5248 579.4816 344.5248 504.7808l129.2288 0L473.7536 479.9488 344.5248 479.9488 344.5248 405.3504l100.9152 0-91.4944-172.544 81.9712 0 80.8448 152.4224 80.8448-152.4224 81.9712 0-91.5456 172.544L672.4096 405.3504z" p-id="7725" fill="#ff5b6b"></path></svg>