<?xml version="1.0" standalone="no"?><!DOCTYPE svg PUBLIC "-//W3C//DTD SVG 1.1//EN" "http://www.w3.org/Graphics/SVG/1.1/DTD/svg11.dtd"><svg t="1501582322858" class="icon" style="" viewBox="0 0 1024 1024" version="1.1" xmlns="http://www.w3.org/2000/svg" p-id="21961" xmlns:xlink="http://www.w3.org/1999/xlink" width="28" height="28"><defs><style type="text/css"></style></defs><path d="M873.253976 1024H149.318141a144.787167 144.787167 0 0 1-144.787168-144.787167v-723.935836a144.787167 144.787167 0 0 1 144.787168-144.787167h434.361501v72.393584H221.711724a144.787167 144.787167 0 0 0-144.787167 144.787167v579.148668a144.787167 144.787167 0 0 0 144.787167 144.787167h579.148669a144.787167 144.787167 0 0 0 144.787167-144.787167v-361.967917h72.393583v434.361501a144.787167 144.787167 0 0 1-144.787167 144.787167z m-490.828496-346.765265a36.196792 36.196792 0 0 1-51.399445 0 36.920728 36.920728 0 0 1 0-51.182264l613.173653-615.34546a36.196792 36.196792 0 0 1 51.399444 0 36.993121 36.993121 0 0 1 0 51.254657z" p-id="21962" fill="#8f8e8e"></path></svg>