<?xml version="1.0" standalone="no"?><!DOCTYPE svg PUBLIC "-//W3C//DTD SVG 1.1//EN" "http://www.w3.org/Graphics/SVG/1.1/DTD/svg11.dtd"><svg t="1501554146535" class="icon" style="" viewBox="0 0 1024 1024" version="1.1" xmlns="http://www.w3.org/2000/svg" p-id="3800" xmlns:xlink="http://www.w3.org/1999/xlink" width="34" height="34"><defs><style type="text/css"></style></defs><path d="M712.064 538.89536c-24.30976 10.5216-45.17376 24.59648-62.60224 42.01984-18.65728 17.41312-33.00864 38.27712-42.96704 62.592-9.95328 24.30976-14.93504 50.82624-14.93504 79.45216 0 27.45856 4.98176 53.30432 14.93504 77.62432 9.95328 24.30976 24.30976 45.17376 42.96704 62.59712 17.51552 18.66752 38.38976 33.01888 62.60224 42.97728 24.31488 9.9584 50.2528 14.93504 77.62944 14.93504 28.71296 0 55.13216-4.8896 79.4368-14.93504 24.32-9.95328 45.17888-24.30976 62.60736-42.97728 17.51552-17.41824 31.488-38.28736 42.11712-62.6944 10.61888-24.2176 15.89248-50.16064 15.89248-77.52704 0-28.62592-5.26848-55.1424-15.98976-79.54432-10.52672-24.30976-24.59648-45.0816-42.01472-62.60224-17.42336-17.408-38.28736-31.39584-62.60736-42.01984-24.30464-10.5216-50.816-15.88224-79.4368-15.88224-27.37664 0-53.31968 5.36064-77.63456 15.98464z m176.68608 84.99712c12.45184 12.4416 22.5024 27.07968 29.97248 43.83744 7.45984 16.8448 11.20256 35.22048 11.20256 55.12704 0 18.76992-3.7376 36.46976-11.20256 53.31456-7.56224 16.8448-17.52064 31.48288-29.97248 43.93472-12.43136 12.53888-27.07968 22.49728-43.92448 29.96224-16.84992 7.46496-35.2256 11.20256-55.13216 11.20256-18.66752 0-36.46976-3.7376-53.31456-11.11552-16.8448-7.55712-31.488-17.5104-43.93472-29.96736-12.4416-12.42624-22.39488-27.06944-29.85984-43.92448-7.46496-16.8448-11.20256-34.64192-11.20256-53.30432 0-19.92704 3.73248-38.29248 11.20256-55.1424 7.46496-16.8448 17.41824-31.48288 29.85984-43.92448 12.53888-12.44672 27.1872-22.4 43.93472-29.96224 16.8448-7.46496 34.65216-11.19744 53.31456-11.19744 19.90656 0 38.37952 3.73248 55.13216 11.19744 16.8448 7.56224 31.49312 17.51552 43.92448 29.96224zM619.61728 214.51264c6.21568 6.2208 13.68576 11.20256 22.38976 14.83264a70.59968 70.59968 0 0 0 28.04736 5.64736c9.95328 0 19.33824-1.81248 28.04736-5.55008a98.6112 98.6112 0 0 0 24.30976-14.93504c6.22592-6.31808 11.19744-13.78304 14.9248-22.49728a70.58432 70.58432 0 0 0 5.65248-28.04736c0-9.94816-1.91488-19.328-5.65248-28.04224-3.73248-8.60672-8.69888-16.17408-14.9248-22.38976a98.6112 98.6112 0 0 0-24.30976-14.93504c-8.704-3.73248-18.08896-5.64736-28.04736-5.64736-9.94816 0-19.33312 1.91488-28.04736 5.64736-8.704 3.73248-16.17408 8.71424-22.38976 14.93504-6.23104 6.21568-11.20256 13.78304-14.94528 22.38976-3.82464 8.71424-5.64224 18.09408-5.64224 28.04224 0 10.05568 1.90976 19.33824 5.64224 28.04736 3.7376 8.72448 8.71424 16.18944 14.94528 22.5024z" p-id="3801" fill="#06c1ae"></path><path d="M320.49664 457.53344a67.10784 67.10784 0 0 0 9.28256 13.97248c3.82976 4.4032 8.13568 8.4224 13.11744 12.15488l136.48384 78.4896v200.04864h0.00512c0.06656 19.38432 15.93344 35.08224 35.5072 35.08224 19.57376 0 35.44576-15.6928 35.51232-35.08224h0.00512V502.32832L462.5408 435.03616l91.60192-91.60192 69.20192 99.06688h161.95072c1.44384 0.1792 2.90816 0.30208 4.4032 0.30208 19.69664 0 35.6608-15.96416 35.6608-35.6608s-15.96416-35.6608-35.6608-35.6608h-127.10912l-74.75712-131.03616a342.35904 342.35904 0 0 0-11.20256-13.97248c-3.73248-4.31616-8.13056-7.7568-13.1072-10.24512s-10.61888-4.59264-16.8448-6.50752a66.33984 66.33984 0 0 0-18.66752-2.77504c-9.9584 0-18.95424 1.90976-27.08992 5.64736a73.56928 73.56928 0 0 0-21.53984 14.92992L331.69408 375.21408a74.85952 74.85952 0 0 0-14.92992 21.53984c-3.73248 8.13568-5.64736 17.13152-5.64736 27.0848 0 4.98176 0.95744 10.62912 2.87232 16.84992a98.46784 98.46784 0 0 0 6.50752 16.8448z" p-id="3802" fill="#06c1ae"></path><path d="M90.496 863.17568c17.5104 18.66752 38.37952 33.01888 62.6944 42.97728 24.31488 9.9584 50.82624 14.93504 79.44192 14.93504 27.37664 0 53.31456-4.8896 77.53216-14.93504 24.31488-9.95328 45.17888-24.30976 62.6944-42.97728 18.66752-17.41824 33.024-38.28736 42.97728-62.6944 9.95328-24.2176 14.92992-50.16064 14.92992-77.52704 0-28.62592-4.97152-55.1424-14.92992-79.45216-9.95328-24.31488-24.31488-45.17376-42.97728-62.6944-17.41824-17.408-38.28736-31.39584-62.60224-42.01984-24.30976-10.5216-50.24256-15.88224-77.62432-15.88224-28.71296 0-55.13216 5.36064-79.5392 15.98464-24.30976 10.5216-45.17888 24.59648-62.59712 42.01984-17.41824 17.41312-31.39584 38.27712-42.01984 62.592-10.624 24.30976-15.88736 50.82624-15.88736 79.45216 0 27.45856 5.36064 53.30432 15.88736 77.62432 10.53184 24.30976 24.6016 45.17888 42.01984 62.59712z m13.11744-195.35872c7.46496-16.8448 17.41824-31.48288 29.95712-43.92448 12.44672-12.44672 27.08992-22.4 43.93472-29.96224 16.8448-7.46496 35.22048-11.19744 55.13216-11.19744 18.66752 0 36.46976 3.73248 53.21728 11.19744 16.84992 7.56224 31.49312 17.51552 43.93472 29.96224 12.53888 12.4416 22.49728 27.07968 30.0544 43.83744 7.46496 16.8448 11.19744 35.22048 11.19744 55.12704 0 18.76992-3.73248 36.46976-11.19744 53.31456-7.56224 16.8448-17.51552 31.48288-29.96224 43.93472-12.4416 12.53888-27.0848 22.49728-43.93472 29.96224-16.8448 7.46496-34.64704 11.20256-53.31456 11.20256-19.91168 0-38.38464-3.7376-55.13216-11.11552-16.84992-7.55712-31.488-17.5104-43.93472-29.96736-12.53888-12.42624-22.49216-27.06944-29.95712-43.92448-7.46496-16.8448-11.20256-34.64192-11.20256-53.30432 0.00512-19.92704 3.7376-38.29248 11.20768-55.1424z" p-id="3803" fill="#06c1ae"></path></svg>